<?xml version="1.0" encoding="utf-8"?>
<!-- Generator: Adobe Illustrator 23.0.5, SVG Export Plug-In . SVG Version: 6.00 Build 0)  -->
<svg version="1.1" id="Слой_1" xmlns="http://www.w3.org/2000/svg" xmlns:xlink="http://www.w3.org/1999/xlink" x="0px" y="0px"
	 viewBox="0 0 512 176.6" style="enable-background:new 0 0 512 176.6;" xml:space="preserve">
<style type="text/css">
	.st0{fill:#2A4B7C;}
	.st1{fill:#182C44;}
</style>
<g>
	<path class="st0" d="M60.5,168.3c-31.1,0-56.1-25-56.1-56.1s25-56.1,56.1-56.1c27.5,0,51.3,19.7,55.3,47c0.3,2.5-0.3,4.6-1.8,6.1
		c-1.3,1.8-3.3,2.8-5.6,2.8H19.3v0.3c0,22.7,18.4,41.2,41.2,41.2h437.1v14.9H60.5 M98.6,96.8C92.5,81.6,77.6,71,60.5,71
		c-17.4,0-32.1,10.6-38.1,25.8H98.6z"/>
</g>
<g>
	<path class="st1" d="M337,146.6c-5.4,0-10.5-1-15.2-3.1s-8.9-4.8-12.4-8.3s-6.3-7.6-8.3-12.4c-2-4.7-3.1-9.8-3.1-15.2
		s1-10.4,3.1-15.2c2-4.7,4.8-8.9,8.3-12.4s7.6-6.3,12.4-8.3c4.7-2.1,9.8-3.1,15.2-3.1c5.6,0,10.9,1.1,15.9,3.3
		c5,2.2,9.3,5.4,13.1,9.5c0.6,0.6,0.9,1.3,0.8,2.2s-0.4,1.6-1.1,2.2c-0.6,0.6-1.3,0.8-2.2,0.8s-1.6-0.4-2.2-1c-3-3.4-6.7-6-11-7.9
		s-8.7-2.8-13.3-2.8s-8.8,0.8-12.7,2.6c-3.9,1.7-7.4,4-10.4,7s-5.3,6.4-7,10.4c-1.7,3.9-2.5,8.2-2.5,12.7s0.9,8.8,2.5,12.7
		c1.7,3.9,4,7.4,7,10.4s6.4,5.3,10.4,7c3.9,1.7,8.2,2.6,12.7,2.6c0.9,0,1.7,0.3,2.3,0.9c0.6,0.6,0.9,1.4,0.9,2.3
		c0,0.9-0.3,1.7-0.9,2.3C338.7,146.3,338,146.6,337,146.6z"/>
</g>
<g>
	<path class="st1" d="M430.7,76.7c3.9,0,7.5,0.7,10.9,2.2s6.4,3.5,9,6.1s4.6,5.6,6.1,9.1s2.2,7.1,2.2,11V144c0,0.7-0.2,1.4-0.7,1.9
		s-1.1,0.8-2,0.8c-0.7,0-1.4-0.3-1.9-0.8s-0.8-1.1-0.8-1.9v-39c0-3.2-0.6-6.1-1.8-8.9s-2.8-5.2-4.9-7.2c-2-2.1-4.5-3.7-7.2-4.9
		s-5.7-1.8-8.9-1.8c-3.1,0-6.1,0.6-8.9,1.8c-2.8,1.2-5.2,2.8-7.2,4.9s-3.7,4.5-4.9,7.2s-1.8,5.7-1.8,8.9v38.9c0,0.7-0.3,1.4-0.8,1.9
		s-1.2,0.8-2,0.8c-0.7,0-1.4-0.4-1.9-1.1c-0.5-0.7-0.8-2-0.8-3.8V37.3c0,0.3,0.3,0.3,0.8-0.1c0.5-0.4,1.1-0.5,1.9-0.5s1.5,0.3,2,0.8
		s0.8,1.2,0.8,1.9v48.9c2.5-3.6,5.8-6.4,9.8-8.5C421.6,77.7,425.9,76.7,430.7,76.7z"/>
</g>
<g>
	<path class="st1" d="M192.6,104.9v2.6c0,4.6,0.9,8.8,2.6,12.7c1.7,3.9,4,7.4,7,10.4s6.4,5.3,10.4,7c3.9,1.7,8.2,2.6,12.7,2.6
		c5.3,0,10.2-1.1,14.7-3.3s8.3-5.4,11.3-9.5c1.4-1.8,2.7-3.9,3.9-6.3c0.8-1.9,2.2-2.4,4-1.6c0.8,0.3,1.4,0.9,1.7,1.8
		s0.3,1.6-0.1,2.5c-1.3,2.8-2.8,5.3-4.4,7.4c-3.8,4.9-8.3,8.7-13.7,11.4s-11.2,4-17.4,4c-5.4,0-10.4-1-15.2-3.1
		c-4.7-2.1-8.9-4.8-12.4-8.3s-6.3-7.6-8.3-12.4c-2.1-4.7-3.1-9.8-3.1-15.2s1-10.4,3.1-15.2c2.1-4.7,4.8-8.9,8.3-12.4
		s7.6-6.3,12.4-8.3c4.7-2.1,9.8-3.1,15.2-3.1c4.8,0,9.4,0.8,13.7,2.5s8.2,3.9,11.6,6.8c3.4,2.9,6.3,6.3,8.6,10.4
		c2.3,4,3.9,8.4,4.6,13.1c0.2,0.9,0,1.8-0.7,2.6c-0.6,0.7-1.4,1.1-2.5,1.1H193L192.6,104.9L192.6,104.9z M225.2,74.9
		c-3.8,0-7.3,0.6-10.7,1.8c-3.4,1.2-6.5,2.8-9.2,4.9s-5.1,4.6-7.1,7.6c-2,2.9-3.5,6.1-4.4,9.5h62.9c-0.9-3.5-2.4-6.7-4.4-9.6
		s-4.4-5.4-7.1-7.5c-2.8-2.1-5.8-3.8-9.2-4.9C232.6,75.5,229,74.9,225.2,74.9z"/>
</g>
<rect x="22.4" y="13.5" class="st1" width="475.3" height="5.6"/>
<circle class="st1" cx="497.6" cy="17.2" r="12.2"/>
<circle class="st0" cx="497.6" cy="160.8" r="12.2"/>
<circle class="st1" cx="22.4" cy="17.2" r="12.2"/>
<path class="st1" d="M152.4,146.7h-0.7c-1.3,0-2.4-1.1-2.4-2.4V31.7c0-1.3,1.1-2.4,2.4-2.4h0.7c1.3,0,2.4,1.1,2.4,2.4v112.6
	C154.8,145.6,153.7,146.7,152.4,146.7z"/>
</svg>
